# xmcd
#
# Track frame offsets:
#	150
#	22020
#	43949
#	62191
#
# Disc length: 1071 seconds
#
# Revision: 0
# Processed by: cddbd v1.5.2PL0 Copyright (c) Steve Scherf et al.
# Submitted via: dBpowerAMP V4.0
#
DISCID=35042d04
DTITLE=Pam Rose - Here, Take This
DYEAR=1900
DGENRE=Country
TTITLE0=I'll Still Be Loving You
TTITLE1=Satisfy Your Heart
TTITLE2=I Should've Known Better
TTITLE3=Omnivia
EXTD=
EXTT0=
EXTT1=
EXTT2=
EXTT3=
PLAYORDER=
